<svg width="1285" height="1285" viewBox="0 0 1285 1285" fill="none" xmlns="http://www.w3.org/2000/svg">
<path d="M0 0H1285V1285H0V0Z" fill="url(#paint0_linear_3694_38)"/>
<path d="M430.144 695.666H445.214C445.214 734.606 447.255 768.993 451.336 798.827C455.731 828.661 460.754 854.883 466.405 877.494C472.056 900.418 476.922 920.36 481.004 937.318C485.399 954.59 487.597 969.978 487.597 983.481C487.597 998.241 483.044 1010.02 473.94 1018.81C464.836 1027.6 453.533 1032 440.034 1032C426.22 1032 414.761 1027.45 405.657 1018.34C396.552 1009.23 392 996.828 392 981.126C392 968.564 393.884 953.491 397.651 935.905C401.418 918.632 405.814 898.377 410.837 875.138C415.86 852.214 420.255 825.991 424.023 796.472C428.104 766.638 430.144 733.036 430.144 695.666ZM724.469 709.326L738.597 723.929L716.463 743.714C682.243 774.175 651.32 796.158 623.692 809.661C596.379 822.851 570.635 829.446 546.462 829.446C511.927 829.446 483.829 818.611 462.167 796.943C440.505 774.96 429.674 743.399 429.674 702.26V429.99C429.674 423.709 431.086 418.685 433.912 414.916C437.051 411.148 441.29 408.478 446.627 406.908L513.968 386.182C519.933 384.297 524.642 383.041 528.096 382.413C531.549 381.471 535.159 381 538.927 381C543.008 381 546.148 382.256 548.345 384.768C550.857 387.281 552.113 390.578 552.113 394.661V682.005C552.113 709.64 558.235 730.21 570.478 743.714C582.722 757.217 599.518 763.969 620.867 763.969C634.366 763.969 648.023 760.986 661.837 755.019C675.964 749.052 690.249 739.788 704.69 727.227L724.469 709.326ZM800.287 830.388C773.602 830.388 752.724 823.793 737.655 810.603C722.585 797.1 714.894 777.001 714.58 750.308L712.696 731.937V430.461C712.696 424.494 714.109 419.47 716.934 415.387C720.074 411.305 724.312 408.321 729.649 406.437L796.991 386.182C802.642 384.297 807.194 383.041 810.647 382.413C814.101 381.471 817.711 381 821.478 381C825.56 381 828.699 382.256 830.897 384.768C833.408 387.281 834.664 390.578 834.664 394.661V750.779C834.664 760.2 836.548 767.266 840.315 771.977C844.083 776.687 849.106 779.043 855.385 779.043C861.664 779.043 866.53 777.001 869.983 772.919C873.437 768.836 876.262 764.911 878.46 761.143C880.657 757.06 882.855 755.019 885.053 755.019C887.878 755.019 890.076 755.961 891.645 757.845C893.215 759.729 894 762.085 894 764.911C894 773.39 890.704 782.811 884.111 793.174C877.518 803.224 867.315 812.017 853.501 819.554C839.687 826.776 821.949 830.388 800.287 830.388Z" fill="white"/>
<defs>
<linearGradient id="paint0_linear_3694_38" x1="642.5" y1="0" x2="1461.5" y2="1307" gradientUnits="userSpaceOnUse">
<stop stop-color="#6C30D0"/>
<stop offset="1" stop-color="#37186A"/>
</linearGradient>
</defs>
</svg>
